<?xml version="1.0" encoding="UTF-8" standalone="no"?>
<!-- Generator: Adobe Illustrator 26.1.0, SVG Export Plug-In . SVG Version: 6.00 Build 0)  -->

<svg
   version="1.1"
   id="Ebene_1"
   x="0px"
   y="0px"
   viewBox="0 0 800 800"
   style="enable-background:new 0 0 800 800;"
   xml:space="preserve"
   sodipodi:docname="bean.svg"
   inkscape:version="1.3.2 (091e20e, 2023-11-25)"
   xmlns:inkscape="http://www.inkscape.org/namespaces/inkscape"
   xmlns:sodipodi="http://sodipodi.sourceforge.net/DTD/sodipodi-0.dtd"
   xmlns="http://www.w3.org/2000/svg"
   xmlns:svg="http://www.w3.org/2000/svg"><defs
   id="defs1" />
<style
   type="text/css"
   id="style1">
	.st0{opacity:0.7425;fill:#FFFFFF;stroke:#000000;stroke-width:1.0545;stroke-linejoin:round;enable-background:new    ;}
	.st1{fill:none;stroke:#000000;stroke-linecap:round;stroke-miterlimit:10;}
</style>
<sodipodi:namedview
   bordercolor="#eeeeee"
   borderopacity="1"
   id="namedview161"
   inkscape:current-layer="Ebene_1"
   inkscape:cx="403.49548"
   inkscape:cy="415.02392"
   inkscape:deskcolor="#505050"
   inkscape:pagecheckerboard="0"
   inkscape:pageopacity="0"
   inkscape:showpageshadow="0"
   inkscape:window-height="1243"
   inkscape:window-maximized="1"
   inkscape:window-width="2304"
   inkscape:window-x="1440"
   inkscape:window-y="25"
   inkscape:zoom="0.6939359"
   pagecolor="#505050">
	</sodipodi:namedview>
<rect
   id="rect161"
   y="0"
   inkscape:label="rect161"
   class="st0"
   width="800"
   height="800"
   style="fill:#ffffff;opacity:1">
</rect>
<g
   id="g161"
   transform="translate(-38.51513,-9.220738)"
   inkscape:label="g161">
	<g
   id="g160">
		<path
   id="path1"
   class="st1"
   d="M300,500c-27.4-98.5,287-101.5,0-200" />
		<path
   id="path2"
   class="st1"
   d="M300,500c-172-310.7-24.3-313.6,5-200" />
		<path
   id="path3"
   class="st1"
   d="M300,500C68.1,101.5,146.8,98.5,310,300" />
		<path
   id="path4"
   class="st1"
   d="M300,500c-172-310.7-24.3-313.6,15-200" />
		<path
   id="path5"
   class="st1"
   d="M300,500c-27.4-98.5,287-101.5,20-200" />
		<path
   id="path6"
   class="st1"
   d="M300,500c117.1,113.6,598.3,110.7,25-200" />
		<path
   id="path7"
   class="st1"
   d="M300,500c177,201.5,727.3,198.5,30-200" />
		<path
   id="path8"
   class="st1"
   d="M300,500c117.1,113.6,598.3,110.7,35-200" />
		<path
   id="path9"
   class="st1"
   d="M300,500c-27.4-98.5,287-101.5,40-200" />
		<path
   id="path10"
   class="st1"
   d="M300,500c-172-310.7-24.3-313.6,45-200" />
		<path
   id="path11"
   class="st1"
   d="M300,500C68.1,101.5,146.8,98.5,350,300" />
		<path
   id="path12"
   class="st1"
   d="M300,500c-172-310.7-24.3-313.6,55-200" />
		<path
   id="path13"
   class="st1"
   d="M300,500c-27.4-98.5,287-101.5,60-200" />
		<path
   id="path14"
   class="st1"
   d="M300,500c117.1,113.6,598.3,110.7,65-200" />
		<path
   id="path15"
   class="st1"
   d="M300,500c177,201.5,727.3,198.5,70-200" />
		<path
   id="path16"
   class="st1"
   d="M300,500c117.1,113.6,598.3,110.7,75-200" />
		<path
   id="path17"
   class="st1"
   d="M300,500c-27.4-98.5,287-101.5,80-200" />
		<path
   id="path18"
   class="st1"
   d="M300,500c-172-310.7-24.3-313.6,85-200" />
		<path
   id="path19"
   class="st1"
   d="M300,500C68.1,101.5,146.8,98.5,390,300" />
		<path
   id="path20"
   class="st1"
   d="M300,500c-172-310.7-24.3-313.6,95-200" />
		<path
   id="path21"
   class="st1"
   d="M300,500c-27.4-98.5,287-101.5,100-200" />
		<path
   id="path22"
   class="st1"
   d="M300,500c117.1,113.6,598.3,110.7,105-200" />
		<path
   id="path23"
   class="st1"
   d="M300,500c177,201.5,727.3,198.5,110-200" />
		<path
   id="path24"
   class="st1"
   d="M300,500c117.1,113.6,598.3,110.7,115-200" />
		<path
   id="path25"
   class="st1"
   d="M300,500c-27.4-98.5,287-101.5,120-200" />
		<path
   id="path26"
   class="st1"
   d="M300,500c-172-310.7-24.3-313.6,125-200" />
		<path
   id="path27"
   class="st1"
   d="M300,500C68.1,101.5,146.8,98.5,430,300" />
		<path
   id="path28"
   class="st1"
   d="M300,500c-172-310.7-24.3-313.6,135-200" />
		<path
   id="path29"
   class="st1"
   d="M300,500c-27.4-98.5,287-101.5,140-200" />
		<path
   id="path30"
   class="st1"
   d="M300,500c117.1,113.6,598.3,110.7,145-200" />
		<path
   id="path31"
   class="st1"
   d="M300,500c177,201.5,727.3,198.5,150-200" />
		<path
   id="path32"
   class="st1"
   d="M300,500c117.1,113.6,598.3,110.7,155-200" />
		<path
   id="path33"
   class="st1"
   d="M300,500c-27.4-98.5,287-101.5,160-200" />
		<path
   id="path34"
   class="st1"
   d="M300,500c-172-310.7-24.3-313.6,165-200" />
		<path
   id="path35"
   class="st1"
   d="M300,500C68.1,101.5,146.8,98.5,470,300" />
		<path
   id="path36"
   class="st1"
   d="M300,500c-172-310.7-24.3-313.6,175-200" />
		<path
   id="path37"
   class="st1"
   d="M300,500c-27.4-98.5,287-101.5,180-200" />
		<path
   id="path38"
   class="st1"
   d="M300,500c117.1,113.6,598.3,110.7,185-200" />
		<path
   id="path39"
   class="st1"
   d="M300,500c177,201.5,727.3,198.5,190-200" />
		<path
   id="path40"
   class="st1"
   d="M300,500c117.1,113.6,598.3,110.7,195-200" />
		<path
   id="path41"
   class="st1"
   d="M300,500c-27.4-98.5,287-101.5,200-200" />
		<path
   id="path42"
   class="st1"
   d="M300,500c-172-310.7-24.3-313.6,200-195" />
		<path
   id="path43"
   class="st1"
   d="M300,500C68.1,101.5,146.8,98.5,500,310" />
		<path
   id="path44"
   class="st1"
   d="M300,500c-172-310.7-24.3-313.6,200-185" />
		<path
   id="path45"
   class="st1"
   d="M300,500c-27.4-98.5,287-101.5,200-180" />
		<path
   id="path46"
   class="st1"
   d="M300,500c117.1,113.6,598.3,110.7,200-175" />
		<path
   id="path47"
   class="st1"
   d="M300,500c177,201.5,727.3,198.5,200-170" />
		<path
   id="path48"
   class="st1"
   d="M300,500c117.1,113.6,598.3,110.7,200-165" />
		<path
   id="path49"
   class="st1"
   d="M300,500c-27.4-98.5,287-101.5,200-160" />
		<path
   id="path50"
   class="st1"
   d="M300,500c-172-310.7-24.3-313.6,200-155" />
		<path
   id="path51"
   class="st1"
   d="M300,500C68.1,101.5,146.8,98.5,500,350" />
		<path
   id="path52"
   class="st1"
   d="M300,500c-172-310.7-24.3-313.6,200-145" />
		<path
   id="path53"
   class="st1"
   d="M300,500c-27.4-98.5,287-101.5,200-140" />
		<path
   id="path54"
   class="st1"
   d="M300,500c117.1,113.6,598.3,110.7,200-135" />
		<path
   id="path55"
   class="st1"
   d="M300,500c177,201.5,727.3,198.5,200-130" />
		<path
   id="path56"
   class="st1"
   d="M300,500c117.1,113.6,598.3,110.7,200-125" />
		<path
   id="path57"
   class="st1"
   d="M300,500c-27.4-98.5,287-101.5,200-120" />
		<path
   id="path58"
   class="st1"
   d="M300,500c-172-310.7-24.3-313.6,200-115" />
		<path
   id="path59"
   class="st1"
   d="M300,500C68.1,101.5,146.8,98.5,500,390" />
		<path
   id="path60"
   class="st1"
   d="M300,500c-172-310.7-24.3-313.6,200-105" />
		<path
   id="path61"
   class="st1"
   d="M300,500c-27.4-98.5,287-101.5,200-100" />
		<path
   id="path62"
   class="st1"
   d="M300,500c117.1,113.6,598.3,110.7,200-95" />
		<path
   id="path63"
   class="st1"
   d="M300,500c177,201.5,727.3,198.5,200-90" />
		<path
   id="path64"
   class="st1"
   d="M300,500c117.1,113.6,598.3,110.7,200-85" />
		<path
   id="path65"
   class="st1"
   d="M300,500c-27.4-98.5,287-101.5,200-80" />
		<path
   id="path66"
   class="st1"
   d="M300,500c-172-310.7-24.3-313.6,200-75" />
		<path
   id="path67"
   class="st1"
   d="M300,500C68.1,101.5,146.8,98.5,500,430" />
		<path
   id="path68"
   class="st1"
   d="M300,500c-172-310.7-24.3-313.6,200-65" />
		<path
   id="path69"
   class="st1"
   d="M300,500c-27.4-98.5,287-101.5,200-60" />
		<path
   id="path70"
   class="st1"
   d="M300,500c117.1,113.6,598.3,110.7,200-55" />
		<path
   id="path71"
   class="st1"
   d="M300,500c177,201.5,727.3,198.5,200-50" />
		<path
   id="path72"
   class="st1"
   d="M300,500c117.1,113.6,598.3,110.7,200-45" />
		<path
   id="path73"
   class="st1"
   d="M300,500c-27.4-98.5,287-101.5,200-40" />
		<path
   id="path74"
   class="st1"
   d="M300,500c-172-310.7-24.3-313.6,200-35" />
		<path
   id="path75"
   class="st1"
   d="M300,500C68.1,101.5,146.8,98.5,500,470" />
		<path
   id="path76"
   class="st1"
   d="M300,500c-172-310.7-24.3-313.6,200-25" />
		<path
   id="path77"
   class="st1"
   d="M300,500c-27.4-98.5,287-101.5,200-20" />
		<path
   id="path78"
   class="st1"
   d="M300,500c117.1,113.6,598.3,110.7,200-15" />
		<path
   id="path79"
   class="st1"
   d="M300,500c177,201.5,727.3,198.5,200-10" />
		<path
   id="path80"
   class="st1"
   d="M300,500c117.1,113.6,598.3,110.7,200-5" />
		<path
   id="path81"
   class="st1"
   d="M300,500c-27.4-98.5,287-101.5,200,0" />
		<path
   id="path82"
   class="st1"
   d="M300,500c117.1,113.6,598.3,110.7,195,0" />
		<path
   id="path83"
   class="st1"
   d="M300,500c177,201.5,727.3,198.5,190,0" />
		<path
   id="path84"
   class="st1"
   d="M300,500c117.1,113.6,598.3,110.7,185,0" />
		<path
   id="path85"
   class="st1"
   d="M300,500c-27.4-98.5,287-101.5,180,0" />
		<path
   id="path86"
   class="st1"
   d="M300,500c-172-310.7-24.3-313.6,175,0" />
		<path
   id="path87"
   class="st1"
   d="M300,500C68.1,101.5,146.8,98.5,470,500" />
		<path
   id="path88"
   class="st1"
   d="M300,500c-172-310.7-24.3-313.6,165,0" />
		<path
   id="path89"
   class="st1"
   d="M300,500c-27.4-98.5,287-101.5,160,0" />
		<path
   id="path90"
   class="st1"
   d="M300,500c117.1,113.6,598.3,110.7,155,0" />
		<path
   id="path91"
   class="st1"
   d="M300,500c177,201.5,727.3,198.5,150,0" />
		<path
   id="path92"
   class="st1"
   d="M300,500c117.1,113.6,598.3,110.7,145,0" />
		<path
   id="path93"
   class="st1"
   d="M300,500c-27.4-98.5,287-101.5,140,0" />
		<path
   id="path94"
   class="st1"
   d="M300,500c-172-310.7-24.3-313.6,135,0" />
		<path
   id="path95"
   class="st1"
   d="M300,500C68.1,101.5,146.8,98.5,430,500" />
		<path
   id="path96"
   class="st1"
   d="M300,500c-172-310.7-24.3-313.6,125,0" />
		<path
   id="path97"
   class="st1"
   d="M300,500c-27.4-98.5,287-101.5,120,0" />
		<path
   id="path98"
   class="st1"
   d="M300,500c117.1,113.6,598.3,110.7,115,0" />
		<path
   id="path99"
   class="st1"
   d="M300,500c177,201.5,727.3,198.5,110,0" />
		<path
   id="path100"
   class="st1"
   d="M300,500c117.1,113.6,598.3,110.7,105,0" />
		<path
   id="path101"
   class="st1"
   d="M300,500c-27.4-98.5,287-101.5,100,0" />
		<path
   id="path102"
   class="st1"
   d="M300,500c-172-310.7-24.3-313.6,95,0" />
		<path
   id="path103"
   class="st1"
   d="M300,500c-231.9-398.5-153.2-401.5,90,0" />
		<path
   id="path104"
   class="st1"
   d="M300,500c-172-310.7-24.3-313.6,85,0" />
		<path
   id="path105"
   class="st1"
   d="M300,500c-27.4-98.5,287-101.5,80,0" />
		<path
   id="path106"
   class="st1"
   d="M300,500c117.1,113.6,598.3,110.7,75,0" />
		<path
   id="path107"
   class="st1"
   d="M300,500c177,201.5,727.3,198.5,70,0" />
		<path
   id="path108"
   class="st1"
   d="M300,500c117.1,113.6,598.3,110.7,65,0" />
		<path
   id="path109"
   class="st1"
   d="M300,500c-27.4-98.5,287-101.5,60,0" />
		<path
   id="path110"
   class="st1"
   d="M300,500c-172-310.7-24.3-313.6,55,0" />
		<path
   id="path111"
   class="st1"
   d="M300,500c-231.9-398.5-153.2-401.5,50,0" />
		<path
   id="path112"
   class="st1"
   d="M300,500c-172-310.7-24.3-313.6,45,0" />
		<path
   id="path113"
   class="st1"
   d="M300,500c-27.4-98.5,287-101.5,40,0" />
		<path
   id="path114"
   class="st1"
   d="M300,500c117.1,113.6,598.3,110.7,35,0" />
		<path
   id="path115"
   class="st1"
   d="M300,500c177,201.5,727.3,198.5,30,0" />
		<path
   id="path116"
   class="st1"
   d="M300,500c117.1,113.6,598.3,110.7,25,0" />
		<path
   id="path117"
   class="st1"
   d="M300,500c-27.4-98.5,287-101.5,20,0" />
		<path
   id="path118"
   class="st1"
   d="M300,500c-172-310.7-24.3-313.6,15,0" />
		<path
   id="path119"
   class="st1"
   d="M300,500c-231.9-398.5-153.2-401.5,10,0" />
		<path
   id="path120"
   class="st1"
   d="M300,500c-172-310.7-24.3-313.6,5,0" />
		<path
   id="path121"
   class="st1"
   d="M300,500C272.6,401.5,587,398.5,300,500" />
		<path
   id="path122"
   class="st1"
   d="M300,500c117.1,113.6,598.3,110.7,0-5" />
		<path
   id="path123"
   class="st1"
   d="M300,500c177,201.5,727.3,198.5,0-10" />
		<path
   id="path124"
   class="st1"
   d="M300,500c117.1,113.6,598.3,110.7,0-15" />
		<path
   id="path125"
   class="st1"
   d="M300,500c-27.4-98.5,287-101.5,0-20" />
		<path
   id="path126"
   class="st1"
   d="M300,500c-172-310.7-24.3-313.6,0-25" />
		<path
   id="path127"
   class="st1"
   d="M300,500c-231.9-398.5-153.2-401.5,0-30" />
		<path
   id="path128"
   class="st1"
   d="M300,500c-172-310.7-24.3-313.6,0-35" />
		<path
   id="path129"
   class="st1"
   d="M300,500c-27.4-98.5,287-101.5,0-40" />
		<path
   id="path130"
   class="st1"
   d="M300,500c117.1,113.6,598.3,110.7,0-45" />
		<path
   id="path131"
   class="st1"
   d="M300,500c177,201.5,727.3,198.5,0-50" />
		<path
   id="path132"
   class="st1"
   d="M300,500c117.1,113.6,598.3,110.7,0-55" />
		<path
   id="path133"
   class="st1"
   d="M300,500c-27.4-98.5,287-101.5,0-60" />
		<path
   id="path134"
   class="st1"
   d="M300,500c-172-310.7-24.3-313.6,0-65" />
		<path
   id="path135"
   class="st1"
   d="M300,500c-231.9-398.5-153.2-401.5,0-70" />
		<path
   id="path136"
   class="st1"
   d="M300,500c-172-310.7-24.3-313.6,0-75" />
		<path
   id="path137"
   class="st1"
   d="M300,500c-27.4-98.5,287-101.5,0-80" />
		<path
   id="path138"
   class="st1"
   d="M300,500c117.1,113.6,598.3,110.7,0-85" />
		<path
   id="path139"
   class="st1"
   d="M300,500c177,201.5,727.3,198.5,0-90" />
		<path
   id="path140"
   class="st1"
   d="M300,500c117.1,113.6,598.3,110.7,0-95" />
		<path
   id="path141"
   class="st1"
   d="M300,500c-27.4-98.5,287-101.5,0-100" />
		<path
   id="path142"
   class="st1"
   d="M300,500c-172-310.7-24.3-313.6,0-105" />
		<path
   id="path143"
   class="st1"
   d="M300,500C68.1,101.5,146.8,98.5,300,390" />
		<path
   id="path144"
   class="st1"
   d="M300,500c-172-310.7-24.3-313.6,0-115" />
		<path
   id="path145"
   class="st1"
   d="M300,500c-27.4-98.5,287-101.5,0-120" />
		<path
   id="path146"
   class="st1"
   d="M300,500c117.1,113.6,598.3,110.7,0-125" />
		<path
   id="path147"
   class="st1"
   d="M300,500c177,201.5,727.3,198.5,0-130" />
		<path
   id="path148"
   class="st1"
   d="M300,500c117.1,113.6,598.3,110.7,0-135" />
		<path
   id="path149"
   class="st1"
   d="M300,500c-27.4-98.5,287-101.5,0-140" />
		<path
   id="path150"
   class="st1"
   d="M300,500c-172-310.7-24.3-313.6,0-145" />
		<path
   id="path151"
   class="st1"
   d="M300,500C68.1,101.5,146.8,98.5,300,350" />
		<path
   id="path152"
   class="st1"
   d="M300,500c-172-310.7-24.3-313.6,0-155" />
		<path
   id="path153"
   class="st1"
   d="M300,500c-27.4-98.5,287-101.5,0-160" />
		<path
   id="path154"
   class="st1"
   d="M300,500c117.1,113.6,598.3,110.7,0-165" />
		<path
   id="path155"
   class="st1"
   d="M300,500c177,201.5,727.3,198.5,0-170" />
		<path
   id="path156"
   class="st1"
   d="M300,500c117.1,113.6,598.3,110.7,0-175" />
		<path
   id="path157"
   class="st1"
   d="M300,500c-27.4-98.5,287-101.5,0-180" />
		<path
   id="path158"
   class="st1"
   d="M300,500c-172-310.7-24.3-313.6,0-185" />
		<path
   id="path159"
   class="st1"
   d="M300,500C68.1,101.5,146.8,98.5,300,310" />
		<path
   id="path160"
   class="st1"
   d="M300,500c-172-310.7-24.3-313.6,0-195" />
	</g>
</g>
</svg>
