<?xml version="1.0" encoding="utf-8"?>
<!-- Generator: Adobe Illustrator 26.1.0, SVG Export Plug-In . SVG Version: 6.00 Build 0)  -->
<svg version="1.1" id="Ebene_1" xmlns="http://www.w3.org/2000/svg" xmlns:xlink="http://www.w3.org/1999/xlink" x="0px" y="0px"
	 viewBox="0 0 800 800" style="enable-background:new 0 0 800 800;" xml:space="preserve">
<style type="text/css">
	.st0{fill:#FFFFFF;stroke:#000000;stroke-linecap:round;stroke-miterlimit:10;}
	.st1{fill:none;stroke:#000000;stroke-linecap:round;stroke-miterlimit:10;}
</style>
<rect x="0" y="0" class="st0" width="800" height="800"/>
<g>
	<g>
		<path class="st1" d="M431.4,698.4L300,300"/>
		<path class="st1" d="M462.4,693.4L314,300"/>
		<path class="st1" d="M492.7,685.3L328,300"/>
		<path class="st1" d="M522,674.1L342,300"/>
		<path class="st1" d="M550,659.8L356,300"/>
		<path class="st1" d="M576.3,642.7L370,300"/>
		<path class="st1" d="M600.7,622.9L384,300"/>
		<path class="st1" d="M622.9,600.7L398,300"/>
		<path class="st1" d="M642.7,576.3L412,300"/>
		<path class="st1" d="M659.8,550L426,300"/>
		<path class="st1" d="M674.1,522L440,300"/>
		<path class="st1" d="M685.3,492.7L454,300"/>
		<path class="st1" d="M693.4,462.4L468,300"/>
		<path class="st1" d="M698.4,431.4L482,300"/>
		<path class="st1" d="M700,400L496,300"/>
		<path class="st1" d="M698.4,368.6L500,300"/>
		<path class="st1" d="M693.4,337.6L500,314"/>
		<path class="st1" d="M685.3,307.3L500,328"/>
		<path class="st1" d="M674.1,278L500,342"/>
		<path class="st1" d="M659.8,250L500,356"/>
		<path class="st1" d="M642.7,223.7L500,370"/>
		<path class="st1" d="M622.9,199.3L500,384"/>
		<path class="st1" d="M600.7,177.1L500,398"/>
		<path class="st1" d="M576.3,157.3L500,412"/>
		<path class="st1" d="M550,140.2L500,426"/>
		<path class="st1" d="M522,125.9L500,440"/>
		<path class="st1" d="M492.7,114.7L500,454"/>
		<path class="st1" d="M462.4,106.6L500,468"/>
		<path class="st1" d="M431.4,101.6L500,482"/>
		<path class="st1" d="M400,100l100,396"/>
		<path class="st1" d="M368.6,101.6L500,500"/>
		<path class="st1" d="M337.6,106.6L486,500"/>
		<path class="st1" d="M307.3,114.7L472,500"/>
		<path class="st1" d="M278,125.9L458,500"/>
		<path class="st1" d="M250,140.2L444,500"/>
		<path class="st1" d="M223.7,157.3L430,500"/>
		<path class="st1" d="M199.3,177.1L416,500"/>
		<path class="st1" d="M177.1,199.3L402,500"/>
		<path class="st1" d="M157.3,223.7L388,500"/>
		<path class="st1" d="M140.2,250L374,500"/>
		<path class="st1" d="M125.9,278L360,500"/>
		<path class="st1" d="M114.7,307.3L346,500"/>
		<path class="st1" d="M106.6,337.6L332,500"/>
		<path class="st1" d="M101.6,368.6L318,500"/>
		<path class="st1" d="M100,400l204,100"/>
		<path class="st1" d="M101.6,431.4L300,500"/>
		<path class="st1" d="M106.6,462.4L300,486"/>
		<path class="st1" d="M114.7,492.7L300,472"/>
		<path class="st1" d="M125.9,522L300,458"/>
		<path class="st1" d="M140.2,550L300,444"/>
		<path class="st1" d="M157.3,576.3L300,430"/>
		<path class="st1" d="M177.1,600.7L300,416"/>
		<path class="st1" d="M199.3,622.9L300,402"/>
		<path class="st1" d="M223.7,642.7L300,388"/>
		<path class="st1" d="M250,659.8L300,374"/>
		<path class="st1" d="M278,674.1L300,360"/>
		<path class="st1" d="M307.3,685.3L300,346"/>
		<path class="st1" d="M337.6,693.4L300,332"/>
		<path class="st1" d="M368.6,698.4L300,318"/>
		<path class="st1" d="M400,700L300,304"/>
	</g>
</g>
</svg>
