<?xml version="1.0" encoding="utf-8"?>
<!-- Generator: Adobe Illustrator 26.1.0, SVG Export Plug-In . SVG Version: 6.00 Build 0)  -->
<svg version="1.1" id="Ebene_1" xmlns="http://www.w3.org/2000/svg" xmlns:xlink="http://www.w3.org/1999/xlink" x="0px" y="0px"
	 viewBox="0 0 800 800" style="enable-background:new 0 0 800 800;" xml:space="preserve">
<style type="text/css">
	.st0{fill:#FFFFFF;stroke:#000000;stroke-miterlimit:10;}
	.st1{fill:none;stroke:#000000;stroke-linecap:round;stroke-miterlimit:10;}
</style>
<g>
	<rect class="st0" width="800" height="800"/>
	<g>
		<path class="st1" d="M300,300c-174,348-42.6,50.4,131.4,398.4"/>
		<path class="st1" d="M431.4,698.4C605.4,1046.4,474-48,300,300"/>
		<path class="st1" d="M314,300c174-348,322.4,741.4,148.4,393.4"/>
		<path class="st1" d="M462.4,693.4C288.4,345.4,140,648,314,300"/>
		<path class="st1" d="M328,300c-174,348-9.3,37.3,164.7,385.3"/>
		<path class="st1" d="M492.7,685.3C666.7,1033.3,502-48,328,300"/>
		<path class="st1" d="M342,300c174-348,354,722.1,180,374.1"/>
		<path class="st1" d="M522,674.1C348,326.1,168,648,342,300"/>
		<path class="st1" d="M356,300c-174,348,20,11.8,194,359.8"/>
		<path class="st1" d="M550,659.8C724,1007.8,530-48,356,300"/>
		<path class="st1" d="M370,300C544-48,750.3,990.7,576.3,642.7"/>
		<path class="st1" d="M576.3,642.7C402.3,294.7,196,648,370,300"/>
		<path class="st1" d="M384,300c-174,348,42.7-25.1,216.7,322.9"/>
		<path class="st1" d="M600.7,622.9C774.7,970.9,558-48,384,300"/>
		<path class="st1" d="M398,300C572-48,796.9,948.7,622.9,600.7"/>
		<path class="st1" d="M622.9,600.7C448.9,252.7,224,648,398,300"/>
		<path class="st1" d="M412,300c-174,348,56.7-71.7,230.7,276.3"/>
		<path class="st1" d="M642.7,576.3C816.7,924.3,586-48,412,300"/>
		<path class="st1" d="M426,300C600-48,833.8,898,659.8,550"/>
		<path class="st1" d="M659.8,550C485.8,202,252,648,426,300"/>
		<path class="st1" d="M440,300c-174,348,60.1-126,234.1,222"/>
		<path class="st1" d="M674.1,522C848.1,870,614-48,440,300"/>
		<path class="st1" d="M454,300C628-48,859.3,840.7,685.3,492.7"/>
		<path class="st1" d="M685.3,492.7C511.3,144.7,280,648,454,300"/>
		<path class="st1" d="M468,300c-174,348,51.4-185.6,225.4,162.4"/>
		<path class="st1" d="M693.4,462.4C867.4,810.4,642-48,468,300"/>
		<path class="st1" d="M482,300C656-48,872.4,779.4,698.4,431.4"/>
		<path class="st1" d="M698.4,431.4C524.4,83.4,308,648,482,300"/>
		<path class="st1" d="M496,300C322,648,526,52,700,400"/>
		<path class="st1" d="M700,400c174,348-30-448-204-100"/>
		<path class="st1" d="M500,300c174-348,372.4,416.6,198.4,68.6"/>
		<path class="st1" d="M698.4,368.6C524.4,20.6,326,648,500,300"/>
		<path class="st1" d="M500,314c-174,348,19.4-324.4,193.4,23.6"/>
		<path class="st1" d="M693.4,337.6C867.4,685.6,674-34,500,314"/>
		<path class="st1" d="M500,328c174-348,359.3,327.3,185.3-20.7"/>
		<path class="st1" d="M685.3,307.3C511.3-40.7,326,676,500,328"/>
		<path class="st1" d="M500,342c-174,348,0.1-412,174.1-64"/>
		<path class="st1" d="M674.1,278C848.1,626,674-6,500,342"/>
		<path class="st1" d="M500,356C674,8,833.8,598,659.8,250"/>
		<path class="st1" d="M659.8,250C485.8-98,326,704,500,356"/>
		<path class="st1" d="M500,370c-174,348-31.3-494.3,142.7-146.3"/>
		<path class="st1" d="M642.7,223.7C816.7,571.7,674,22,500,370"/>
		<path class="st1" d="M500,384C674,36,796.9,547.3,622.9,199.3"/>
		<path class="st1" d="M622.9,199.3C448.9-148.7,326,732,500,384"/>
		<path class="st1" d="M500,398c-174,348-73.3-568.9,100.7-220.9"/>
		<path class="st1" d="M600.7,177.1C774.7,525.1,674,50,500,398"/>
		<path class="st1" d="M500,412c174-348,250.3,93.3,76.3-254.7"/>
		<path class="st1" d="M576.3,157.3C402.3-190.7,326,760,500,412"/>
		<path class="st1" d="M500,426c-174,348-124-633.8,50-285.8"/>
		<path class="st1" d="M550,140.2C724,488.2,674,78,500,426"/>
		<path class="st1" d="M500,440c174-348,196,33.9,22-314.1"/>
		<path class="st1" d="M522,125.9C348-222.1,326,788,500,440"/>
		<path class="st1" d="M500,454c-174,348-181.3-687.3-7.3-339.3"/>
		<path class="st1" d="M492.7,114.7c174,348,181.3-8.7,7.3,339.3"/>
		<path class="st1" d="M500,468c174-348,136.4-13.4-37.6-361.4"/>
		<path class="st1" d="M462.4,106.6C288.4-241.4,326,816,500,468"/>
		<path class="st1" d="M500,482c-174,348-242.6-728.4-68.6-380.4"/>
		<path class="st1" d="M431.4,101.6C605.4,449.6,674,134,500,482"/>
		<path class="st1" d="M500,496c174-348,74-48-100-396"/>
		<path class="st1" d="M400,100c-174-348-74,744,100,396"/>
		<path class="st1" d="M500,500C326,848,194.6-246.4,368.6,101.6"/>
		<path class="st1" d="M368.6,101.6C542.6,449.6,674,152,500,500"/>
		<path class="st1" d="M486,500c174-348,25.6-45.4-148.4-393.4"/>
		<path class="st1" d="M337.6,106.6C163.6-241.4,312,848,486,500"/>
		<path class="st1" d="M472,500C298,848,133.3-233.3,307.3,114.7"/>
		<path class="st1" d="M307.3,114.7C481.3,462.7,646,152,472,500"/>
		<path class="st1" d="M458,500c174-348-6-26.1-180-374.1"/>
		<path class="st1" d="M278,125.9C104-222.1,284,848,458,500"/>
		<path class="st1" d="M444,500C270,848,76-207.8,250,140.2"/>
		<path class="st1" d="M250,140.2C424,488.2,618,152,444,500"/>
		<path class="st1" d="M430,500c174-348-32.3,5.3-206.3-342.7"/>
		<path class="st1" d="M223.7,157.3C49.7-190.7,256,848,430,500"/>
		<path class="st1" d="M416,500C242,848,25.3-170.9,199.3,177.1"/>
		<path class="st1" d="M199.3,177.1C373.3,525.1,590,152,416,500"/>
		<path class="st1" d="M402,500c174-348-50.9,47.3-224.9-300.7"/>
		<path class="st1" d="M177.1,199.3C3.1-148.7,228,848,402,500"/>
		<path class="st1" d="M388,500C214,848-16.7-124.3,157.3,223.7"/>
		<path class="st1" d="M157.3,223.7C331.3,571.7,562,152,388,500"/>
		<path class="st1" d="M374,500c174-348-59.8,98-233.8-250"/>
		<path class="st1" d="M140.2,250C-33.8-98,200,848,374,500"/>
		<path class="st1" d="M360,500C186,848-48.1-70,125.9,278"/>
		<path class="st1" d="M125.9,278C299.9,626,534,152,360,500"/>
		<path class="st1" d="M346,500c174-348-57.3,155.3-231.3-192.7"/>
		<path class="st1" d="M114.7,307.3C-59.3-40.7,172,848,346,500"/>
		<path class="st1" d="M332,500C158,848-67.4-10.4,106.6,337.6"/>
		<path class="st1" d="M106.6,337.6C280.6,685.6,506,152,332,500"/>
		<path class="st1" d="M318,500c174-348-42.4,216.6-216.4-131.4"/>
		<path class="st1" d="M101.6,368.6C-72.4,20.6,144,848,318,500"/>
		<path class="st1" d="M304,500C130,848-74,52,100,400"/>
		<path class="st1" d="M100,400c174,348,378-248,204,100"/>
		<path class="st1" d="M300,500c174-348-24.4,279.4-198.4-68.6"/>
		<path class="st1" d="M101.6,431.4C-72.4,83.4,126,848,300,500"/>
		<path class="st1" d="M300,486C126,834-67.4,114.4,106.6,462.4"/>
		<path class="st1" d="M106.6,462.4C280.6,810.4,474,138,300,486"/>
		<path class="st1" d="M300,472c174-348-11.3,368.7-185.3,20.7"/>
		<path class="st1" d="M114.7,492.7C-59.3,144.7,126,820,300,472"/>
		<path class="st1" d="M300,458C126,806-48.1,174,125.9,522"/>
		<path class="st1" d="M125.9,522C299.9,870,474,110,300,458"/>
		<path class="st1" d="M300,444c174-348,14.2,454-159.8,106"/>
		<path class="st1" d="M140.2,550C-33.8,202,126,792,300,444"/>
		<path class="st1" d="M300,430C126,778-16.7,228.3,157.3,576.3"/>
		<path class="st1" d="M157.3,576.3C331.3,924.3,474,82,300,430"/>
		<path class="st1" d="M300,416c174-348,51.1,532.7-122.9,184.7"/>
		<path class="st1" d="M177.1,600.7C3.1,252.7,126,764,300,416"/>
		<path class="st1" d="M300,402C126,750,25.3,274.9,199.3,622.9"/>
		<path class="st1" d="M199.3,622.9C373.3,970.9,474,54,300,402"/>
		<path class="st1" d="M300,388c174-348,97.7,602.7-76.3,254.7"/>
		<path class="st1" d="M223.7,642.7C49.7,294.7,126,736,300,388"/>
		<path class="st1" d="M300,374c-174,348-224-62.2-50,285.8"/>
		<path class="st1" d="M250,659.8C424,1007.8,474,26,300,374"/>
		<path class="st1" d="M300,360c174-348,152,662.1-22,314.1"/>
		<path class="st1" d="M278,674.1C104,326.1,126,708,300,360"/>
		<path class="st1" d="M300,346c-174,348-166.7-8.7,7.3,339.3"/>
		<path class="st1" d="M307.3,685.3C481.3,1033.3,474-2,300,346"/>
		<path class="st1" d="M300,332c174-348,211.6,709.4,37.6,361.4"/>
		<path class="st1" d="M337.6,693.4C163.6,345.4,126,680,300,332"/>
		<path class="st1" d="M300,318c-174,348-105.4,32.4,68.6,380.4"/>
		<path class="st1" d="M368.6,698.4C542.6,1046.4,474-30,300,318"/>
		<path class="st1" d="M300,304c174-348,274,744,100,396"/>
		<path class="st1" d="M400,700c-174-348-274-48-100-396"/>
	</g>
</g>
</svg>
