<?xml version="1.0" encoding="utf-8"?>
<!-- Generator: Adobe Illustrator 26.1.0, SVG Export Plug-In . SVG Version: 6.00 Build 0)  -->
<svg version="1.1" id="Ebene_1" xmlns="http://www.w3.org/2000/svg" xmlns:xlink="http://www.w3.org/1999/xlink" x="0px" y="0px"
	 viewBox="0 0 800 800" style="enable-background:new 0 0 800 800;" xml:space="preserve">
<style type="text/css">
	.st0{fill:#FFFFFF;stroke:#000000;stroke-miterlimit:10;}
	.st1{fill:none;stroke:#000000;stroke-linecap:round;stroke-miterlimit:10;}
</style>
<g>
	<rect class="st0" width="800" height="800"/>
	<g>
		<path class="st1" d="M116.2,102.4c-93.4,186.8,66.5,406,159.9,592.7"/>
		<path class="st1" d="M276,695.1c93.4,186.8-66.5-779.5-159.9-592.7"/>
		<path class="st1" d="M136.9,102.4c93.4-186.8,244.1,779,150.7,592.3"/>
		<path class="st1" d="M287.7,694.7C194.3,507.9,43.5,289.2,136.9,102.4"/>
		<path class="st1" d="M157.7,102.4c-93.4,186.8,48.2,404.7,141.6,591.5"/>
		<path class="st1" d="M299.3,693.9C392.7,880.6,251-84.4,157.7,102.4"/>
		<path class="st1" d="M178.4,102.4c93.4-186.8,225.8,777.2,132.4,590.4"/>
		<path class="st1" d="M310.9,692.8C217.5,506.1,85,289.2,178.4,102.4"/>
		<path class="st1" d="M199.2,102.4C105.8,289.2,229,504.7,322.4,691.5"/>
		<path class="st1" d="M322.4,691.5c93.4,186.8-29.9-775.8-123.3-589.1"/>
		<path class="st1" d="M219.9,102.4c93.4-186.8,207.4,774.1,114,587.4"/>
		<path class="st1" d="M333.9,689.8c-93.4-186.8-207.4-400.6-114-587.4"/>
		<path class="st1" d="M240.7,102.4C147.3,289.2,252,501.1,345.4,687.8"/>
		<path class="st1" d="M345.4,687.8C438.8,874.6,334-84.4,240.7,102.4"/>
		<path class="st1" d="M261.4,102.4c93.4-186.8,188.8,769.9,95.4,583.2"/>
		<path class="st1" d="M356.8,685.5C263.5,498.8,168,289.2,261.4,102.4"/>
		<path class="st1" d="M282.2,102.4c-93.4,186.8-7.4,393.8,86,580.6"/>
		<path class="st1" d="M368.2,683c93.4,186.8,7.4-767.3-86-580.6"/>
		<path class="st1" d="M302.9,102.4c93.4-186.8,169.9,764.5,76.5,577.7"/>
		<path class="st1" d="M379.5,680.1c-93.4-186.8-169.9-391-76.5-577.7"/>
		<path class="st1" d="M323.7,102.4c-93.4,186.8-26.4,387.8,67,574.6"/>
		<path class="st1" d="M390.7,677c93.4,186.8,26.4-761.3-67-574.6"/>
		<path class="st1" d="M344.4,102.4c93.4-186.8,150.7,757.9,57.4,571.1"/>
		<path class="st1" d="M401.8,673.5C308.4,486.7,251,289.2,344.4,102.4"/>
		<path class="st1" d="M365.2,102.4c-93.4,186.8-45.7,380.6,47.6,567.4"/>
		<path class="st1" d="M412.8,669.8c93.4,186.8,45.7-754.1-47.6-567.4"/>
		<path class="st1" d="M385.9,102.4c93.4-186.8,131.2,750.1,37.8,563.3"/>
		<path class="st1" d="M423.7,665.7C330.4,479,292.5,289.2,385.9,102.4"/>
		<path class="st1" d="M406.7,102.4c-93.4,186.8-65.5,372.3,27.9,559"/>
		<path class="st1" d="M434.5,661.4c93.4,186.8,65.5-745.8-27.9-559"/>
		<path class="st1" d="M412.6,102.4c93.4-186.8,126,741.2,32.6,554.4"/>
		<path class="st1" d="M445.2,656.8c-93.4-186.8-126-367.7-32.6-554.4"/>
		<path class="st1" d="M412.6,123.1c-93.4,186.8-50.2,342,43.2,528.8"/>
		<path class="st1" d="M455.8,652c93.4,186.8,50.2-715.6-43.2-528.8"/>
		<path class="st1" d="M412.6,143.9c93.4-186.8,147,689.7,53.7,502.9"/>
		<path class="st1" d="M466.3,646.8c-93.4-186.8-147-316.1-53.7-502.9"/>
		<path class="st1" d="M412.6,164.6c-93.4,186.8-29.4,290,64,476.7"/>
		<path class="st1" d="M476.6,641.4c93.4,186.8,29.4-663.5-64-476.7"/>
		<path class="st1" d="M412.6,185.4c93.4-186.8,167.5,637,74.1,450.3"/>
		<path class="st1" d="M486.7,635.7c-93.4-186.8-167.5-263.5-74.1-450.3"/>
		<path class="st1" d="M412.6,206.1c-93.4,186.8-9.3,236.8,84.1,423.6"/>
		<path class="st1" d="M496.7,629.7c93.4,186.8,9.3-610.3-84.1-423.6"/>
		<path class="st1" d="M412.6,226.9c93.4-186.8,187.3,583.4,94,396.6"/>
		<path class="st1" d="M506.6,623.5c-93.4-186.8-187.3-209.9-94-396.6"/>
		<path class="st1" d="M412.6,247.7c-93.4,186.8,10.3,182.7,103.6,369.4"/>
		<path class="st1" d="M516.2,617.1C609.6,803.8,506,60.9,412.6,247.7"/>
		<path class="st1" d="M412.6,268.4C506,81.6,619.1,797.1,525.7,610.3"/>
		<path class="st1" d="M525.7,610.3c-93.4-186.8-206.5-155.2-113.1-341.9"/>
		<path class="st1" d="M412.6,289.2C319.2,476,441.7,416.7,535.1,603.4"/>
		<path class="st1" d="M535.1,603.4c93.4,186.8-29.1-501-122.5-314.2"/>
		<path class="st1" d="M412.6,309.9c93.4-186.8,225,473,131.6,286.3"/>
		<path class="st1" d="M544.2,596.2c-93.4-186.8-225-99.5-131.6-286.3"/>
		<path class="st1" d="M412.6,330.7c-93.4,186.8,47.2,71.3,140.6,258.1"/>
		<path class="st1" d="M553.2,588.7c93.4,186.8-47.2-444.8-140.6-258.1"/>
		<path class="st1" d="M412.6,351.4C506,164.6,655.3,767.8,561.9,581.1"/>
		<path class="st1" d="M561.9,581.1c-93.4-186.8-242.7-42.9-149.3-229.7"/>
		<path class="st1" d="M412.6,372.2c-93.4,186.8,64.5,14.2,157.9,201"/>
		<path class="st1" d="M570.5,573.2c93.4,186.8-64.5-387.8-157.9-201"/>
		<path class="st1" d="M412.6,392.9C506,206.1,672.2,751.8,578.8,565"/>
		<path class="st1" d="M578.8,565c-93.4-186.8-259.6,14.6-166.2-172.1"/>
		<path class="st1" d="M412.6,398.8c-93.4,186.8,80.9-28.9,174.3,157.9"/>
		<path class="st1" d="M586.9,556.7c93.4,186.8-80.9-344.6-174.3-157.9"/>
		<path class="st1" d="M391.9,398.8c93.4-186.8,296.4,336.1,203,149.3"/>
		<path class="st1" d="M594.8,548.1c-93.4-186.8-296.4,37.4-203-149.3"/>
		<path class="st1" d="M371.1,398.8c-93.4,186.8,138-46.2,231.4,140.6"/>
		<path class="st1" d="M602.5,539.4c93.4,186.8-138-327.3-231.4-140.6"/>
		<path class="st1" d="M350.4,398.8C443.8,212,703.4,717.2,610,530.4"/>
		<path class="st1" d="M609.9,530.4c-93.4-186.8-353,55.1-259.6-131.6"/>
		<path class="st1" d="M329.6,398.8c-93.4,186.8,194.2-64.3,287.6,122.5"/>
		<path class="st1" d="M617.2,521.3C710.5,708.1,423,212.1,329.6,398.8"/>
		<path class="st1" d="M308.9,398.8C402.2,212.1,717.5,698.7,624.1,512"/>
		<path class="st1" d="M624.1,512c-93.4-186.8-408.6,73.6-315.3-113.1"/>
		<path class="st1" d="M288.1,398.8c-93.4,186.8,249.4-83.1,342.7,103.6"/>
		<path class="st1" d="M630.8,502.5c93.4,186.8-249.4-290.4-342.7-103.6"/>
		<path class="st1" d="M267.4,398.8c93.4-186.8,463.3,280.7,370,94"/>
		<path class="st1" d="M637.3,492.8c-93.4-186.8-463.3,92.8-370-94"/>
		<path class="st1" d="M246.6,398.8c-93.4,186.8,303.5-102.6,396.9,84.1"/>
		<path class="st1" d="M643.5,482.9C736.9,669.7,340,212,246.6,398.8"/>
		<path class="st1" d="M225.9,398.8c93.4-186.8,517,260.9,423.6,74.1"/>
		<path class="st1" d="M649.5,472.9c-93.4-186.8-517,112.6-423.6-74.1"/>
		<path class="st1" d="M205.1,398.8c-93.4,186.8,356.7-122.8,450.1,64"/>
		<path class="st1" d="M655.2,462.8c93.4,186.8-356.7-250.7-450.1-64"/>
		<path class="st1" d="M184.3,398.8c93.4-186.8,569.6,240.4,476.2,53.7"/>
		<path class="st1" d="M660.6,452.5C567.2,265.7,91,585.6,184.3,398.8"/>
		<path class="st1" d="M163.6,398.8C70.2,585.6,572.3,255.3,665.7,442"/>
		<path class="st1" d="M665.7,442c93.4,186.8-408.7-230-502.1-43.2"/>
		<path class="st1" d="M142.8,398.8c93.4-186.8,621.1,219.4,527.7,32.6"/>
		<path class="st1" d="M670.6,431.5c-93.4-186.8-621.1,154.1-527.7-32.6"/>
		<path class="st1" d="M122.1,398.8c-93.4,186.8,459.7-164.8,553.1,22"/>
		<path class="st1" d="M675.2,420.8c93.4,186.8-459.7-208.7-553.1-21.9"/>
		<path class="st1" d="M116.2,398.8c93.4-186.8,656.7,197.9,563.3,11.1"/>
		<path class="st1" d="M679.5,410c-93.4-186.8-656.7,175.6-563.3-11.1"/>
		<path class="st1" d="M116.2,378.1c-93.4,186.8,474-165.8,567.4,21"/>
		<path class="st1" d="M683.5,399c93.4,186.8-474-207.7-567.4-21"/>
		<path class="st1" d="M116.2,357.3c93.4-186.8,664.5,217.4,571.1,30.7"/>
		<path class="st1" d="M687.3,388c-93.4-186.8-664.5,156.1-571.1-30.7"/>
		<path class="st1" d="M116.2,336.6c-93.4,186.8,481.2-146.4,574.6,40.3"/>
		<path class="st1" d="M690.7,376.9c93.4,186.8-481.2-227.1-574.6-40.3"/>
		<path class="st1" d="M116.2,315.8c93.4-186.8,671.1,236.6,577.7,49.9"/>
		<path class="st1" d="M693.9,365.7c-93.4-186.8-671.1,136.9-577.7-49.9"/>
		<path class="st1" d="M116.2,295.1c-93.4,186.8,487.2-127.4,580.6,59.3"/>
		<path class="st1" d="M696.8,354.4c93.4,186.8-487.2-246.1-580.6-59.3"/>
		<path class="st1" d="M116.2,274.3C209.6,87.5,792.7,529.8,699.4,343"/>
		<path class="st1" d="M699.3,343.1c-93.4-186.8-676.5,118-583.2-68.7"/>
		<path class="st1" d="M116.2,253.6c-93.4,186.8,492-108.7,585.4,78.1"/>
		<path class="st1" d="M701.6,331.6c93.4,186.8-492-264.8-585.4-78.1"/>
		<path class="st1" d="M116.2,232.8C209.6,46,797,506.9,703.6,320.1"/>
		<path class="st1" d="M703.6,320.2c-93.4-186.8-680.8,99.4-587.4-87.3"/>
		<path class="st1" d="M116.2,212.1c-93.4,186.8,495.7-90.2,589.1,96.6"/>
		<path class="st1" d="M705.2,308.7c93.4,186.8-495.7-283.3-589.1-96.6"/>
		<path class="st1" d="M116.2,191.3C209.5,4.6,800,483.8,706.6,297.1"/>
		<path class="st1" d="M706.6,297.1c-93.4-186.8-683.8,81-590.4-105.8"/>
		<path class="st1" d="M116.2,170.6C22.8,357.3,614.3,98.7,707.7,285.5"/>
		<path class="st1" d="M707.7,285.5C801,472.3,209.5-16.2,116.2,170.6"/>
		<path class="st1" d="M116.2,149.8C209.6-37,801.8,460.6,708.5,273.9"/>
		<path class="st1" d="M708.4,273.9C615.1,87.1,22.8,336.6,116.2,149.8"/>
		<path class="st1" d="M116.2,129.1C22.8,315.8,615.5,75.5,708.9,262.3"/>
		<path class="st1" d="M708.9,262.3c93.4,186.7-499.4-320-592.7-133.2"/>
		<path class="st1" d="M116.2,108.3c93.4-186.8,686.2,329,592.9,142.3"/>
		<path class="st1" d="M709,250.6C615.7,63.9,22.8,295.1,116.2,108.3"/>
	</g>
</g>
</svg>
