<?xml version="1.0" encoding="utf-8"?>
<!-- Generator: Adobe Illustrator 26.1.0, SVG Export Plug-In . SVG Version: 6.00 Build 0)  -->
<svg version="1.1" id="Ebene_1" xmlns="http://www.w3.org/2000/svg" xmlns:xlink="http://www.w3.org/1999/xlink" x="0px" y="0px"
	 viewBox="0 0 800 800" style="enable-background:new 0 0 800 800;" xml:space="preserve">
<style type="text/css">
	.st0{fill:#FFFFFF;stroke:#000000;stroke-miterlimit:10;}
	.st1{fill:none;stroke:#000000;stroke-linecap:round;stroke-miterlimit:10;}
</style>
<rect class="st0" width="800" height="800"/>
<g>
	<g>
		<path class="st1" d="M154.7,710.6c1422.7-459-396.5-963.7,0-305"/>
		<path class="st1" d="M154.7,710.6c1422.7-459-396.5-963.7,15.2-305"/>
		<path class="st1" d="M154.7,710.6c1422.7-459-396.5-963.7,30.5-305"/>
		<path class="st1" d="M154.7,710.6c1422.7-459-396.5-963.7,45.7-305"/>
		<path class="st1" d="M154.7,710.6c1422.7-459-396.5-963.7,61-305"/>
		<path class="st1" d="M154.7,710.6c1422.7-459-396.5-963.7,76.2-305"/>
		<path class="st1" d="M154.7,710.6c1422.7-459-396.5-963.7,91.5-305"/>
		<path class="st1" d="M154.7,710.6c1422.7-459-396.5-963.7,106.7-305"/>
		<path class="st1" d="M154.7,710.6c1422.7-459-396.5-963.7,122-305"/>
		<path class="st1" d="M154.7,710.6c1422.7-459-396.5-963.7,137.2-305"/>
		<path class="st1" d="M154.7,710.6c1422.7-459-396.5-963.7,152.5-305"/>
		<path class="st1" d="M154.7,710.6c1422.7-459-396.5-963.7,167.7-305"/>
		<path class="st1" d="M154.7,710.6c1422.7-459-396.5-963.7,183-305"/>
		<path class="st1" d="M154.7,710.6c1422.7-459-396.5-963.7,198.2-305"/>
		<path class="st1" d="M154.7,710.6c1422.7-459-396.5-963.7,213.5-305"/>
		<path class="st1" d="M154.7,710.6c1422.7-459-396.5-963.7,228.7-305"/>
		<path class="st1" d="M154.7,710.6c1422.7-459-396.5-963.7,244-305"/>
		<path class="st1" d="M154.7,710.6c1422.7-459-396.5-963.7,259.2-305"/>
		<path class="st1" d="M154.7,710.6c1422.7-459-396.5-963.7,274.5-305"/>
		<path class="st1" d="M154.7,710.6c1422.7-459-396.5-963.7,289.7-305"/>
		<path class="st1" d="M154.7,710.6c1422.7-459-396.5-963.7,305-305"/>
		<path class="st1" d="M154.7,710.6c1422.7-459-396.5-963.7,305-289.7"/>
		<path class="st1" d="M154.7,710.6c1422.7-459-396.5-963.7,305-274.5"/>
		<path class="st1" d="M154.7,710.6c1422.7-459-396.5-963.7,305-259.2"/>
		<path class="st1" d="M154.7,710.6c1422.7-459-396.5-963.7,305-244"/>
		<path class="st1" d="M154.7,710.6c1422.7-459-396.5-963.7,305-228.7"/>
		<path class="st1" d="M154.7,710.6c1422.7-459-396.5-963.7,305-213.5"/>
		<path class="st1" d="M154.7,710.6c1422.7-459-396.5-963.7,305-198.2"/>
		<path class="st1" d="M154.7,710.6c1422.7-459-396.5-963.7,305-183"/>
		<path class="st1" d="M154.7,710.6c1422.7-459-396.5-963.7,305-167.7"/>
		<path class="st1" d="M154.7,710.6c1422.7-459-396.5-963.7,305-152.5"/>
		<path class="st1" d="M154.7,710.6c1422.7-459-396.5-963.7,305-137.2"/>
		<path class="st1" d="M154.7,710.6c1422.7-459-396.5-963.7,305-122"/>
		<path class="st1" d="M154.7,710.6c1422.7-459-396.5-963.7,305-106.7"/>
		<path class="st1" d="M154.7,710.6c1422.7-459-396.5-963.7,305-91.5"/>
		<path class="st1" d="M154.7,710.6c1422.7-459-396.5-963.7,305-76.2"/>
		<path class="st1" d="M154.7,710.6c1422.7-459-396.5-963.7,305-61"/>
		<path class="st1" d="M154.7,710.6c1422.7-459-396.5-963.7,305-45.7"/>
		<path class="st1" d="M154.7,710.6c1422.7-459-396.5-963.7,305-30.5"/>
		<path class="st1" d="M154.7,710.6c1422.7-459-396.5-963.7,305-15.2"/>
		<path class="st1" d="M154.7,710.6c1422.7-459-396.5-963.7,305,0"/>
		<path class="st1" d="M154.7,710.6c1422.7-459-396.5-963.7,289.7,0"/>
		<path class="st1" d="M154.7,710.6c1422.7-459-396.5-963.7,274.5,0"/>
		<path class="st1" d="M154.7,710.6c1422.7-459-396.5-963.7,259.2,0"/>
		<path class="st1" d="M154.7,710.6c1422.7-459-396.5-963.7,244,0"/>
		<path class="st1" d="M154.7,710.6c1422.7-459-396.5-963.7,228.7,0"/>
		<path class="st1" d="M154.7,710.6c1422.7-459-396.5-963.7,213.5,0"/>
		<path class="st1" d="M154.7,710.6c1422.7-459-396.5-963.7,198.2,0"/>
		<path class="st1" d="M154.7,710.6c1422.7-459-396.5-963.7,183,0"/>
		<path class="st1" d="M154.7,710.6c1422.7-459-396.5-963.7,167.7,0"/>
		<path class="st1" d="M154.7,710.6c1422.7-459-396.5-963.7,152.5,0"/>
		<path class="st1" d="M154.7,710.6c1422.7-459-396.5-963.7,137.2,0"/>
		<path class="st1" d="M154.7,710.6c1422.7-459-396.5-963.7,122,0"/>
		<path class="st1" d="M154.7,710.6c1422.7-459-396.5-963.7,106.7,0"/>
		<path class="st1" d="M154.7,710.6c1422.7-459-396.5-963.7,91.5,0"/>
		<path class="st1" d="M154.7,710.6c1422.7-459-396.5-963.7,76.2,0"/>
		<path class="st1" d="M154.7,710.6c1422.7-459-396.5-963.7,61,0"/>
		<path class="st1" d="M154.7,710.6c1422.7-459-396.5-963.7,45.7,0"/>
		<path class="st1" d="M154.7,710.6c1422.7-459-396.5-963.7,30.5,0"/>
		<path class="st1" d="M154.7,710.6c1422.7-459-396.5-963.7,15.2,0"/>
		<path class="st1" d="M154.7,710.6C1577.3,251.6-241.8-253.1,154.7,710.6"/>
		<path class="st1" d="M154.7,710.6c1422.7-459-396.5-963.7,0-15.2"/>
		<path class="st1" d="M154.7,710.6c1422.7-459-396.5-963.7,0-30.5"/>
		<path class="st1" d="M154.7,710.6c1422.7-459-396.5-963.7,0-45.7"/>
		<path class="st1" d="M154.7,710.6c1422.7-459-396.5-963.7,0-61"/>
		<path class="st1" d="M154.7,710.6c1422.7-459-396.5-963.7,0-76.2"/>
		<path class="st1" d="M154.7,710.6c1422.7-459-396.5-963.7,0-91.5"/>
		<path class="st1" d="M154.7,710.6c1422.7-459-396.5-963.7,0-106.7"/>
		<path class="st1" d="M154.7,710.6c1422.7-459-396.5-963.7,0-122"/>
		<path class="st1" d="M154.7,710.6c1422.7-459-396.5-963.7,0-137.2"/>
		<path class="st1" d="M154.7,710.6c1422.7-459-396.5-963.7,0-152.5"/>
		<path class="st1" d="M154.7,710.6c1422.7-459-396.5-963.7,0-167.7"/>
		<path class="st1" d="M154.7,710.6c1422.7-459-396.5-963.7,0-183"/>
		<path class="st1" d="M154.7,710.6c1422.7-459-396.5-963.7,0-198.2"/>
		<path class="st1" d="M154.7,710.6c1422.7-459-396.5-963.7,0-213.5"/>
		<path class="st1" d="M154.7,710.6c1422.7-459-396.5-963.7,0-228.7"/>
		<path class="st1" d="M154.7,710.6c1422.7-459-396.5-963.7,0-244"/>
		<path class="st1" d="M154.7,710.6c1422.7-459-396.5-963.7,0-259.2"/>
		<path class="st1" d="M154.7,710.6c1422.7-459-396.5-963.7,0-274.5"/>
		<path class="st1" d="M154.7,710.6c1422.7-459-396.5-963.7,0-289.7"/>
	</g>
</g>
</svg>
